<svg xmlns="http://www.w3.org/2000/svg" viewBox="0 0 32 32" role="img" aria-label="DesiEroticTales">
  <defs>
    <linearGradient id="g" x1="0%" y1="0%" x2="100%" y2="100%">
      <stop offset="0%" stop-color="#e8c45c"/>
      <stop offset="100%" stop-color="#c9a227"/>
    </linearGradient>
    <linearGradient id="b" x1="0%" y1="100%" x2="100%" y2="0%">
      <stop offset="0%" stop-color="#5c1528"/>
      <stop offset="100%" stop-color="#9e1a38"/>
    </linearGradient>
  </defs>
  <rect width="32" height="32" rx="7" fill="#0c0a0a"/>
  <path d="M10 11v12c0 .6.5 1 1 1h3V12l-3 1.5z" fill="url(#b)"/>
  <path d="M22 11v13h-3V12l3 1.5z" fill="url(#g)"/>
  <path d="M15 12h2v12h-2z" fill="#2a2220"/>
  <path d="M16 7c1.1 0 2 .9 2 2 0 .7-.4 1.3-1 1.6L16 11l-1-1.4c-.6-.3-1-.9-1-1.6 0-1.1.9-2 2-2z" fill="url(#g)"/>
</svg>