<svg xmlns="http://www.w3.org/2000/svg">
  <symbol id="book-icon" viewBox="0 0 24 24">
    <path fill="currentColor" d="M6 4h10a2 2 0 0 1 2 2v14l-3-2-3 2-3-2-3 2V6a2 2 0 0 1 2-2zm2 2v11.5l1-.67 3 2 3-2 1-.67V6H8z"/>
  </symbol>
  <symbol id="share-icon" viewBox="0 0 24 24">
    <path fill="currentColor" d="M18 16.08c-.76 0-1.44.3-1.96.77L8.91 12.7c.05-.23.09-.46.09-.7s-.04-.47-.09-.7l7.05-4.11c.54.5 1.25.81 2.04.81 1.66 0 3-1.34 3-3s-1.34-3-3-3-3 1.34-3 3c0 .24.04.47.09.7L8.04 9.81C7.5 9.31 6.79 9 6 9c-1.66 0-3 1.34-3 3s1.34 3 3 3c.79 0 1.5-.31 2.04-.81l7.12 4.16c-.05.21-.08.43-.08.65 0 1.61 1.31 2.92 2.92 2.92S21 19.69 21 18.08 19.69 15.16 18 15.16z"/>
  </symbol>
  <symbol id="user-icon" viewBox="0 0 24 24">
    <path fill="currentColor" d="M12 12a4 4 0 1 0 0-8 4 4 0 0 0 0 8zm0 2c-3.33 0-6 1.79-6 4v1h12v-1c0-2.21-2.67-4-6-4z"/>
  </symbol>
  <symbol id="heart-icon" viewBox="0 0 24 24">
    <path fill="currentColor" d="M12 21.35l-1.45-1.32C5.4 15.36 2 12.28 2 8.5 2 5.42 4.42 3 7.5 3c1.74 0 3.41.81 4.5 2.09C13.09 3.81 14.76 3 16.5 3 19.58 3 22 5.42 22 8.5c0 3.78-3.4 6.86-8.55 11.54L12 21.35z"/>
  </symbol>
</svg>